# This file uses centimeters as units for non-parametric coordinates.

mtllib PIckup2.mtl
g default
v -0.103950 -0.298303 0.726002
v 0.103950 -0.298303 0.726002
v -0.103950 -0.087985 0.726002
v 0.103950 -0.087985 0.726002
v -0.103950 -0.087985 -0.726002
v 0.103950 -0.087985 -0.726002
v -0.103950 -0.298303 -0.726002
v 0.103950 -0.298303 -0.726002
v -0.103950 0.298303 0.000000
v 0.103950 0.298303 0.000000
v 0.103950 0.087984 0.000000
v -0.103950 0.087984 0.000000
vt 0.432012 0.540379
vt 0.567988 0.540379
vt 0.567988 0.728490
vt 0.432012 0.728490
vt 0.432012 0.959360
vt 0.567988 0.959360
vt 0.567988 0.771249
vt 0.432012 0.771249
vt 0.239448 0.504119
vt 0.366098 0.504119
vt 0.500000 0.497984
vt 0.500000 0.411512
vt 0.702888 0.252692
vt 0.702888 0.339164
vt 0.702888 0.097776
vt 0.657866 0.957755
vt 0.782066 0.957755
vt 0.500000 0.256596
vt 0.782066 0.505336
vt 0.500000 0.343067
vt 0.702888 0.184247
vt 0.657867 0.505336
vt 0.297112 0.252692
vt 0.297112 0.339164
vt 0.297112 0.097776
vt 0.297112 0.184247
vt 0.366098 0.958113
vt 0.239448 0.958113
vt 0.070642 0.958545
vt 0.197292 0.958545
vt 0.197292 0.504552
vt 0.070642 0.504552
vt 0.824861 0.503483
vt 0.949061 0.503483
vt 0.949061 0.958182
vt 0.824861 0.958182
vn 0.000000 0.000000 1.000000
vn 0.000000 0.000000 1.000000
vn 0.000000 0.000000 1.000000
vn 0.000000 0.000000 1.000000
vn 0.000000 1.000000 0.000000
vn 0.000000 1.000000 0.000000
vn 0.000000 0.882814 -0.469723
vn 0.000000 0.882814 -0.469723
vn 0.000000 0.000000 -1.000000
vn 0.000000 0.000000 -1.000000
vn 0.000000 0.000000 -1.000000
vn 0.000000 0.000000 -1.000000
vn 0.000000 -0.882814 0.469723
vn 0.000000 -0.882814 0.469723
vn 0.000000 -1.000000 0.000000
vn 0.000000 -1.000000 0.000000
vn 1.000000 0.000000 0.000000
vn 1.000000 0.000000 0.000000
vn 1.000000 0.000000 0.000000
vn 1.000000 0.000000 0.000000
vn 1.000000 0.000000 0.000000
vn 1.000000 0.000000 0.000000
vn -1.000000 0.000000 0.000000
vn -1.000000 0.000000 0.000000
vn -1.000000 0.000000 0.000000
vn -1.000000 0.000000 0.000000
vn -1.000000 0.000000 0.000000
vn -1.000000 0.000000 0.000000
vn 0.000000 0.882814 0.469723
vn 0.000000 0.882814 0.469723
vn 0.000000 -0.882814 -0.469723
vn 0.000000 -0.882814 -0.469723
s off
g pCube1
usemtl initialShadingGroup
f 1/1/1 2/2/2 4/3/3 3/4/4
s 1
f 9/16/5 10/17/6 6/19/7 5/22/8
s off
f 5/5/9 6/6/10 8/7/11 7/8/12
s 2
f 7/33/13 8/34/14 11/35/15 12/36/16
s off
f 11/12/17 8/13/18 6/14/19 10/11/20 4/24/21 2/23/22
f 9/20/23 5/21/24 7/15/25 12/18/26 1/25/27 3/26/28
s 1
f 3/9/29 4/10/30 10/27/6 9/28/5
s 2
f 12/29/16 11/30/15 2/31/31 1/32/32
